<svg xmlns="http://www.w3.org/2000/svg" width="0" height="0" style="position:absolute" aria-hidden="true"><defs>
<symbol id="i-km" viewBox="0 0 24 24"><path d="M4 18a9 9 0 1 1 16 0"></path><path d="m14 11-3 4"></path></symbol>
<symbol id="i-gear" viewBox="0 0 24 24"><path d="M8 5v14M16 5v14M8 12h8"></path><circle cx="8" cy="5" r="1.6"></circle></symbol>
<symbol id="i-fuel" viewBox="0 0 24 24"><path d="M5 20V6a2 2 0 0 1 2-2h5a2 2 0 0 1 2 2v14"></path><path d="M4 20h11"></path><path d="M17 9l2 2v7a1.6 1.6 0 0 0 3 0v-7"></path></symbol>
<symbol id="i-cal" viewBox="0 0 24 24"><rect x="3.5" y="5" width="17" height="15" rx="2.5"></rect><path d="M3.5 10h17M8 3v4M16 3v4"></path></symbol>
<symbol id="i-ps" viewBox="0 0 24 24"><path d="M13 2 4 14h7l-1 8 9-12h-7z"></path></symbol>
<symbol id="i-awd" viewBox="0 0 24 24"><circle cx="6.5" cy="6.5" r="3"></circle><circle cx="17.5" cy="6.5" r="3"></circle><circle cx="6.5" cy="17.5" r="3"></circle><circle cx="17.5" cy="17.5" r="3"></circle></symbol>
<symbol id="i-trade" viewBox="0 0 24 24"><path d="M3 8h13l-3-3M21 16H8l3 3"></path></symbol>
<symbol id="i-polish" viewBox="0 0 24 24"><path d="M12 3l1.9 4.6L19 9l-4 3.4.9 5.1L12 15l-3.9 2.5.9-5.1L5 9l5.1-1.4z"></path></symbol>
<symbol id="i-shop" viewBox="0 0 24 24"><path d="M14.7 6.3a4 4 0 0 0 5 5L15 16l-4-4z"></path><path d="m11 12-6.3 6.3a1.9 1.9 0 0 0 2.7 2.7L13 15"></path></symbol>
<symbol id="i-value" viewBox="0 0 24 24"><path d="M12 3v18M7 7h7.5a2.5 2.5 0 0 1 0 5H9a2.5 2.5 0 0 0 0 5H17"></path></symbol>
<symbol id="i-search" viewBox="0 0 24 24"><circle cx="11" cy="11" r="7"></circle><path d="m20 20-3.6-3.6"></path></symbol>
<symbol id="i-chevron" viewBox="0 0 24 24"><path d="m9 5 7 7-7 7"></path></symbol>
<symbol id="i-back" viewBox="0 0 24 24"><path d="m15 5-7 7 7 7"></path></symbol>
<symbol id="i-check" viewBox="0 0 24 24"><path d="m4 12.5 5 5L20 6.5"></path></symbol>
<symbol id="i-arrow" viewBox="0 0 24 24"><path d="M5 12h13m-5-5 5 5-5 5"></path></symbol>
<symbol id="i-eye" viewBox="0 0 24 24"><path d="M2 12s3.6-6.5 10-6.5S22 12 22 12s-3.6 6.5-10 6.5S2 12 2 12Z"></path><circle cx="12" cy="12" r="2.7"></circle></symbol>
<symbol id="i-eye-off" viewBox="0 0 24 24"><path d="M3 3 21 21"></path><path d="M10.3 6.1A9.6 9.6 0 0 1 12 5.5c6.4 0 10 6.5 10 6.5a17 17 0 0 1-3.3 4.1M6.6 8A17 17 0 0 0 2 12s3.6 6.5 10 6.5a9.9 9.9 0 0 0 4-.8"></path><path d="M9.6 9.8a2.7 2.7 0 0 0 3.8 3.8"></path></symbol>
<symbol id="i-lock" viewBox="0 0 24 24"><rect x="4.5" y="10.5" width="15" height="9.5" rx="2.2"></rect><path d="M8 10.5V7.8a4 4 0 0 1 8 0v2.7"></path></symbol>
<symbol id="i-camera" viewBox="0 0 24 24"><rect x="3.5" y="6.5" width="17" height="13" rx="2.4"></rect><circle cx="12" cy="13" r="3.2"></circle><path d="M8.6 6.5 10 4.4h4L15.4 6.5"></path></symbol>
<symbol id="i-uebersicht" viewBox="0 0 24 24"><path d="M4 13h6V4H4v9Zm0 7h6v-4H4v4Zm10 0h6v-9h-6v9Zm0-16v4h6V4h-6Z"></path></symbol>
<symbol id="i-fahrzeuge" viewBox="0 0 24 24"><path d="M5 17h14M6.5 17v1.6M17.5 17v1.6"></path><path d="M4 17v-3.6l1.8-4.6A2 2 0 0 1 7.7 7.5h8.6a2 2 0 0 1 1.9 1.3L20 13.4V17"></path><path d="M4.5 13.4h15"></path><circle cx="7.6" cy="15.2" r=".6"></circle><circle cx="16.4" cy="15.2" r=".6"></circle></symbol>
<symbol id="i-werkstatt" viewBox="0 0 24 24"><path d="M14.5 6.2a3.8 3.8 0 0 0 5 5L15 15.7l-4.7 4.7a2 2 0 0 1-2.9-2.8l4.8-4.8L7.7 8.3a3.8 3.8 0 0 1 5-5L9.4 6.6l2 2 2-2-1.9-1.9"></path></symbol>
<symbol id="i-anfragen" viewBox="0 0 24 24"><path d="M21 11.5a8 8 0 0 1-11.6 7.1L4 20l1.4-5.3A8 8 0 1 1 21 11.5Z"></path></symbol>
<symbol id="i-mehr" viewBox="0 0 24 24"><circle cx="5" cy="12" r="1.3"></circle><circle cx="12" cy="12" r="1.3"></circle><circle cx="19" cy="12" r="1.3"></circle></symbol>
</defs></svg>